# xmcd CD database file
#
# Track frame offsets:
#	150
#	10474
#	27013
#	47921
#	68474
#	86669
#	102424
#	117489
#	130951
#	147392
#	169975
#	187073
#
# Disc length: 2768 seconds
#
# Revision: 0
# Processed by: cddbd v1.5.2PL0 Copyright (c) Steve Scherf et al.
# Submitted via: CDex 1.70beta2
#
DISCID=ac0ace0c
DTITLE=Patricia Kaas - Kabaret
DYEAR=2009
DGENRE=Jazz
TTITLE0=Addicte aux Héroïnes
TTITLE1=La chance jamais ne dure
TTITLE2=Le jour se lève
TTITLE3=Une dernière fois
TTITLE4=Kabaret
TTITLE5=Faites Entrer Les Clowns
TTITLE6=Falling in love again
TTITLE7=Pigalle interlude
TTITLE8=Solo
TTITLE9=Je t'aime encore
TTITLE10=Et s'il fallait le faire
TTITLE11=Mon piano rouge
EXTD=YEAR: 2009
EXTT0=
EXTT1=
EXTT2=
EXTT3=
EXTT4=
EXTT5=
EXTT6=
EXTT7=
EXTT8=
EXTT9=
EXTT10=
EXTT11=
PLAYORDER=
